<mxfile host="app.diagrams.net" modified="2020-12-31T08:12:27.617Z" agent="5.0 (Windows NT 10.0; Win64; x64) AppleWebKit/537.36 (KHTML, like Gecko) Chrome/87.0.4280.88 Safari/537.36" etag="s6OLa1IvF6pM4kzvkBCL" version="14.1.3" type="github">
  <diagram id="6a731a19-8d31-9384-78a2-239565b7b9f0" name="Page-1">
    <mxGraphModel dx="2787" dy="652" grid="1" gridSize="10" guides="1" tooltips="1" connect="1" arrows="1" fold="1" page="1" pageScale="1" pageWidth="1169" pageHeight="827" background="#ffffff" math="0" shadow="0">
      <root>
        <mxCell id="0" />
        <mxCell id="1" parent="0" />
        <mxCell id="l3SIcmZrGun3tXuFz_EY-1781" style="edgeStyle=orthogonalEdgeStyle;curved=1;orthogonalLoop=1;jettySize=auto;html=1;exitX=0;exitY=0.25;exitDx=0;exitDy=0;fontSize=16;fontColor=#FFFFFF;" parent="1" source="1749" target="1764" edge="1">
          <mxGeometry relative="1" as="geometry" />
        </mxCell>
        <mxCell id="l3SIcmZrGun3tXuFz_EY-1856" style="edgeStyle=orthogonalEdgeStyle;curved=1;orthogonalLoop=1;jettySize=auto;html=1;exitX=0;exitY=0.75;exitDx=0;exitDy=0;entryX=0.75;entryY=0;entryDx=0;entryDy=0;fontSize=18;fontColor=#FFFFFF;" parent="1" source="1749" target="l3SIcmZrGun3tXuFz_EY-1855" edge="1">
          <mxGeometry relative="1" as="geometry" />
        </mxCell>
        <mxCell id="l3SIcmZrGun3tXuFz_EY-1857" style="edgeStyle=orthogonalEdgeStyle;curved=1;orthogonalLoop=1;jettySize=auto;html=1;exitX=0.5;exitY=1;exitDx=0;exitDy=0;fontSize=18;fontColor=#FFFFFF;" parent="1" source="1749" target="l3SIcmZrGun3tXuFz_EY-1854" edge="1">
          <mxGeometry relative="1" as="geometry" />
        </mxCell>
        <mxCell id="l3SIcmZrGun3tXuFz_EY-1858" style="edgeStyle=orthogonalEdgeStyle;curved=1;orthogonalLoop=1;jettySize=auto;html=1;exitX=1;exitY=0.75;exitDx=0;exitDy=0;entryX=0.331;entryY=0.063;entryDx=0;entryDy=0;entryPerimeter=0;fontSize=18;fontColor=#FFFFFF;" parent="1" source="1749" target="l3SIcmZrGun3tXuFz_EY-1853" edge="1">
          <mxGeometry relative="1" as="geometry" />
        </mxCell>
        <mxCell id="1749" value="Machine&lt;br style=&quot;font-size: 22px;&quot;&gt;Learning" style="rounded=1;whiteSpace=wrap;html=1;shadow=0;labelBackgroundColor=none;strokeColor=#9673a6;strokeWidth=3;fillColor=#e1d5e7;fontFamily=Helvetica;fontSize=22;align=center;fontStyle=1;spacing=5;arcSize=7;perimeterSpacing=2;" parent="1" vertex="1">
          <mxGeometry x="-300" y="420" width="220" height="100" as="geometry" />
        </mxCell>
        <mxCell id="l3SIcmZrGun3tXuFz_EY-1782" style="edgeStyle=orthogonalEdgeStyle;curved=1;orthogonalLoop=1;jettySize=auto;html=1;exitX=0;exitY=0.5;exitDx=0;exitDy=0;fontSize=16;fontColor=#FFFFFF;" parent="1" source="1764" target="1769" edge="1">
          <mxGeometry relative="1" as="geometry">
            <Array as="points">
              <mxPoint x="-665" y="337" />
            </Array>
          </mxGeometry>
        </mxCell>
        <mxCell id="l3SIcmZrGun3tXuFz_EY-1783" style="edgeStyle=orthogonalEdgeStyle;curved=1;orthogonalLoop=1;jettySize=auto;html=1;exitX=1;exitY=0.5;exitDx=0;exitDy=0;entryX=0.5;entryY=1;entryDx=0;entryDy=0;fontSize=16;fontColor=#FFFFFF;" parent="1" source="1764" target="1765" edge="1">
          <mxGeometry relative="1" as="geometry">
            <Array as="points">
              <mxPoint x="-355" y="337" />
            </Array>
          </mxGeometry>
        </mxCell>
        <mxCell id="1764" value="Supervised Learning&lt;br style=&quot;font-size: 18px;&quot;&gt;有监督学习" style="rounded=1;whiteSpace=wrap;html=1;shadow=0;labelBackgroundColor=none;strokeColor=#666666;strokeWidth=3;fontFamily=Helvetica;fontSize=18;fontColor=#333333;align=center;spacing=5;fontStyle=5;arcSize=7;perimeterSpacing=2;" parent="1" vertex="1">
          <mxGeometry x="-600" y="310" width="200" height="54.5" as="geometry" />
        </mxCell>
        <mxCell id="l3SIcmZrGun3tXuFz_EY-1795" style="edgeStyle=orthogonalEdgeStyle;curved=1;orthogonalLoop=1;jettySize=auto;html=1;exitX=0;exitY=0.5;exitDx=0;exitDy=0;entryX=0.5;entryY=1;entryDx=0;entryDy=0;fontSize=18;fontColor=#FFFFFF;" parent="1" source="1765" target="l3SIcmZrGun3tXuFz_EY-1792" edge="1">
          <mxGeometry relative="1" as="geometry" />
        </mxCell>
        <mxCell id="l3SIcmZrGun3tXuFz_EY-1796" style="edgeStyle=orthogonalEdgeStyle;curved=1;orthogonalLoop=1;jettySize=auto;html=1;entryX=0.85;entryY=1.05;entryDx=0;entryDy=0;fontSize=18;fontColor=#FFFFFF;entryPerimeter=0;" parent="1" target="l3SIcmZrGun3tXuFz_EY-1790" edge="1">
          <mxGeometry relative="1" as="geometry">
            <mxPoint x="-410" y="198" as="sourcePoint" />
            <Array as="points">
              <mxPoint x="-435" y="198" />
            </Array>
          </mxGeometry>
        </mxCell>
        <mxCell id="l3SIcmZrGun3tXuFz_EY-1797" style="edgeStyle=orthogonalEdgeStyle;curved=1;orthogonalLoop=1;jettySize=auto;html=1;exitX=0.5;exitY=0;exitDx=0;exitDy=0;entryX=0.5;entryY=1;entryDx=0;entryDy=0;fontSize=18;fontColor=#FFFFFF;" parent="1" source="1765" target="l3SIcmZrGun3tXuFz_EY-1791" edge="1">
          <mxGeometry relative="1" as="geometry">
            <Array as="points">
              <mxPoint x="-350" y="198" />
            </Array>
          </mxGeometry>
        </mxCell>
        <mxCell id="l3SIcmZrGun3tXuFz_EY-1798" style="edgeStyle=orthogonalEdgeStyle;curved=1;orthogonalLoop=1;jettySize=auto;html=1;exitX=0.75;exitY=0;exitDx=0;exitDy=0;entryX=0;entryY=1;entryDx=0;entryDy=0;fontSize=18;fontColor=#FFFFFF;" parent="1" source="1765" target="l3SIcmZrGun3tXuFz_EY-1793" edge="1">
          <mxGeometry relative="1" as="geometry">
            <Array as="points">
              <mxPoint x="-310" y="198" />
              <mxPoint x="-310" y="150" />
            </Array>
          </mxGeometry>
        </mxCell>
        <mxCell id="l3SIcmZrGun3tXuFz_EY-1799" style="edgeStyle=orthogonalEdgeStyle;curved=1;orthogonalLoop=1;jettySize=auto;html=1;exitX=1;exitY=0.25;exitDx=0;exitDy=0;fontSize=18;fontColor=#FFFFFF;entryX=0;entryY=0.5;entryDx=0;entryDy=0;" parent="1" source="1765" target="l3SIcmZrGun3tXuFz_EY-1794" edge="1">
          <mxGeometry relative="1" as="geometry">
            <mxPoint x="-250" y="214.41176470588232" as="targetPoint" />
            <Array as="points">
              <mxPoint x="-278" y="210" />
            </Array>
          </mxGeometry>
        </mxCell>
        <mxCell id="1765" value="Classification" style="rounded=1;whiteSpace=wrap;html=1;shadow=0;labelBackgroundColor=none;strokeColor=#d6b656;strokeWidth=3;fillColor=#fff2cc;fontFamily=Helvetica;fontSize=14;align=center;spacing=5;arcSize=7;perimeterSpacing=2;" parent="1" vertex="1">
          <mxGeometry x="-430" y="200" width="150" height="50" as="geometry" />
        </mxCell>
        <mxCell id="l3SIcmZrGun3tXuFz_EY-1784" style="edgeStyle=orthogonalEdgeStyle;curved=1;orthogonalLoop=1;jettySize=auto;html=1;exitX=0;exitY=0.5;exitDx=0;exitDy=0;fontSize=16;fontColor=#FFFFFF;" parent="1" source="1769" target="l3SIcmZrGun3tXuFz_EY-1785" edge="1">
          <mxGeometry relative="1" as="geometry">
            <mxPoint x="-770" y="150" as="targetPoint" />
            <Array as="points">
              <mxPoint x="-732" y="240" />
            </Array>
          </mxGeometry>
        </mxCell>
        <mxCell id="l3SIcmZrGun3tXuFz_EY-1786" style="edgeStyle=orthogonalEdgeStyle;curved=1;orthogonalLoop=1;jettySize=auto;html=1;fontSize=18;fontColor=#FFFFFF;exitX=0;exitY=0.25;exitDx=0;exitDy=0;" parent="1" source="1769" target="l3SIcmZrGun3tXuFz_EY-1787" edge="1">
          <mxGeometry relative="1" as="geometry">
            <mxPoint x="-654.7058823529412" y="140" as="targetPoint" />
            <mxPoint x="-730" y="198" as="sourcePoint" />
            <Array as="points">
              <mxPoint x="-722" y="229" />
              <mxPoint x="-750" y="229" />
            </Array>
          </mxGeometry>
        </mxCell>
        <mxCell id="l3SIcmZrGun3tXuFz_EY-1788" style="edgeStyle=orthogonalEdgeStyle;curved=1;orthogonalLoop=1;jettySize=auto;html=1;exitX=0.5;exitY=0;exitDx=0;exitDy=0;fontSize=18;fontColor=#FFFFFF;entryX=0.5;entryY=1;entryDx=0;entryDy=0;" parent="1" source="1769" target="l3SIcmZrGun3tXuFz_EY-1789" edge="1">
          <mxGeometry relative="1" as="geometry">
            <mxPoint x="-560" y="150" as="targetPoint" />
            <Array as="points">
              <mxPoint x="-660" y="218" />
            </Array>
          </mxGeometry>
        </mxCell>
        <mxCell id="1769" value="Regression" style="rounded=1;whiteSpace=wrap;html=1;shadow=0;labelBackgroundColor=none;strokeColor=#d6b656;strokeWidth=3;fillColor=#fff2cc;fontFamily=Helvetica;fontSize=14;align=center;spacing=5;arcSize=7;perimeterSpacing=2;" parent="1" vertex="1">
          <mxGeometry x="-720" y="230" width="120" height="40" as="geometry" />
        </mxCell>
        <mxCell id="l3SIcmZrGun3tXuFz_EY-1785" value="Ridge/Lasso Regression" style="shape=ext;double=1;rounded=1;whiteSpace=wrap;html=1;fillColor=#f5f5f5;strokeColor=#666666;fontColor=#333333;" parent="1" vertex="1">
          <mxGeometry x="-870" y="220" width="96" height="40" as="geometry" />
        </mxCell>
        <mxCell id="l3SIcmZrGun3tXuFz_EY-1787" value="Linear Regression" style="shape=ext;double=1;rounded=1;whiteSpace=wrap;html=1;fillColor=#f5f5f5;strokeColor=#666666;fontColor=#333333;" parent="1" vertex="1">
          <mxGeometry x="-830" y="150" width="100" height="40" as="geometry" />
        </mxCell>
        <mxCell id="l3SIcmZrGun3tXuFz_EY-1789" value="Polynomial Regression" style="shape=ext;double=1;rounded=1;whiteSpace=wrap;html=1;fillColor=#f5f5f5;strokeColor=#666666;fontColor=#333333;" parent="1" vertex="1">
          <mxGeometry x="-690" y="150" width="100" height="40" as="geometry" />
        </mxCell>
        <mxCell id="l3SIcmZrGun3tXuFz_EY-1790" value="Naive Bayes" style="shape=ext;double=1;rounded=1;whiteSpace=wrap;html=1;gradientColor=#b3b3b3;fillColor=#f5f5f5;strokeColor=#666666;" parent="1" vertex="1">
          <mxGeometry x="-520" y="100" width="100" height="40" as="geometry" />
        </mxCell>
        <mxCell id="l3SIcmZrGun3tXuFz_EY-1791" value="Logistic Regreession" style="shape=ext;double=1;rounded=1;whiteSpace=wrap;html=1;gradientColor=#b3b3b3;fillColor=#f5f5f5;strokeColor=#666666;" parent="1" vertex="1">
          <mxGeometry x="-400" y="100" width="100" height="40" as="geometry" />
        </mxCell>
        <mxCell id="l3SIcmZrGun3tXuFz_EY-1792" value="K-NN" style="shape=ext;double=1;rounded=1;whiteSpace=wrap;html=1;gradientColor=#b3b3b3;fillColor=#f5f5f5;strokeColor=#666666;" parent="1" vertex="1">
          <mxGeometry x="-550" y="160" width="100" height="40" as="geometry" />
        </mxCell>
        <mxCell id="l3SIcmZrGun3tXuFz_EY-1793" value="SVM" style="shape=ext;double=1;rounded=1;whiteSpace=wrap;html=1;gradientColor=#b3b3b3;fillColor=#f5f5f5;strokeColor=#666666;" parent="1" vertex="1">
          <mxGeometry x="-260" y="110" width="100" height="40" as="geometry" />
        </mxCell>
        <mxCell id="l3SIcmZrGun3tXuFz_EY-1794" value="Decision Trees" style="shape=ext;double=1;rounded=1;whiteSpace=wrap;html=1;gradientColor=#b3b3b3;fillColor=#f5f5f5;strokeColor=#666666;" parent="1" vertex="1">
          <mxGeometry x="-245" y="190" width="100" height="40" as="geometry" />
        </mxCell>
        <mxCell id="l3SIcmZrGun3tXuFz_EY-1803" style="edgeStyle=orthogonalEdgeStyle;curved=1;orthogonalLoop=1;jettySize=auto;html=1;exitX=1;exitY=0.25;exitDx=0;exitDy=0;fontSize=16;fontColor=#FFFFFF;entryX=0.5;entryY=1;entryDx=0;entryDy=0;" parent="1" source="1749" target="l3SIcmZrGun3tXuFz_EY-1804" edge="1">
          <mxGeometry relative="1" as="geometry">
            <mxPoint x="243" y="427" as="sourcePoint" />
            <mxPoint x="70" y="356.5" as="targetPoint" />
          </mxGeometry>
        </mxCell>
        <mxCell id="l3SIcmZrGun3tXuFz_EY-1807" style="edgeStyle=orthogonalEdgeStyle;curved=1;orthogonalLoop=1;jettySize=auto;html=1;entryX=0.5;entryY=1;entryDx=0;entryDy=0;fontSize=18;fontColor=#FFFFFF;" parent="1" target="l3SIcmZrGun3tXuFz_EY-1805" edge="1">
          <mxGeometry relative="1" as="geometry">
            <mxPoint x="85" y="318" as="sourcePoint" />
            <Array as="points">
              <mxPoint x="85" y="318" />
            </Array>
          </mxGeometry>
        </mxCell>
        <mxCell id="l3SIcmZrGun3tXuFz_EY-1843" style="edgeStyle=orthogonalEdgeStyle;curved=1;orthogonalLoop=1;jettySize=auto;html=1;exitX=0.75;exitY=0;exitDx=0;exitDy=0;entryX=0;entryY=0.75;entryDx=0;entryDy=0;fontSize=18;fontColor=#FFFFFF;" parent="1" source="l3SIcmZrGun3tXuFz_EY-1804" target="l3SIcmZrGun3tXuFz_EY-1826" edge="1">
          <mxGeometry relative="1" as="geometry">
            <Array as="points">
              <mxPoint x="171" y="249" />
              <mxPoint x="270" y="249" />
            </Array>
          </mxGeometry>
        </mxCell>
        <mxCell id="l3SIcmZrGun3tXuFz_EY-1844" style="edgeStyle=orthogonalEdgeStyle;curved=1;orthogonalLoop=1;jettySize=auto;html=1;exitX=1;exitY=0.5;exitDx=0;exitDy=0;fontSize=18;fontColor=#FFFFFF;entryX=0;entryY=0.5;entryDx=0;entryDy=0;" parent="1" source="l3SIcmZrGun3tXuFz_EY-1804" target="l3SIcmZrGun3tXuFz_EY-1831" edge="1">
          <mxGeometry relative="1" as="geometry">
            <mxPoint x="327" y="348" as="targetPoint" />
          </mxGeometry>
        </mxCell>
        <mxCell id="l3SIcmZrGun3tXuFz_EY-1804" value="Supervised Learning&lt;br style=&quot;font-size: 18px;&quot;&gt;有监督学习" style="rounded=1;whiteSpace=wrap;html=1;shadow=0;labelBackgroundColor=none;strokeColor=#666666;strokeWidth=3;fontFamily=Helvetica;fontSize=18;fontColor=#333333;align=center;spacing=5;fontStyle=5;arcSize=7;perimeterSpacing=2;" parent="1" vertex="1">
          <mxGeometry x="20" y="320" width="200" height="54.5" as="geometry" />
        </mxCell>
        <mxCell id="l3SIcmZrGun3tXuFz_EY-1808" style="edgeStyle=orthogonalEdgeStyle;curved=1;orthogonalLoop=1;jettySize=auto;html=1;entryX=0.5;entryY=1;entryDx=0;entryDy=0;fontSize=18;fontColor=#FFFFFF;" parent="1" target="l3SIcmZrGun3tXuFz_EY-1806" edge="1">
          <mxGeometry relative="1" as="geometry">
            <mxPoint x="8" y="225" as="sourcePoint" />
          </mxGeometry>
        </mxCell>
        <mxCell id="l3SIcmZrGun3tXuFz_EY-1811" style="edgeStyle=orthogonalEdgeStyle;curved=1;orthogonalLoop=1;jettySize=auto;html=1;exitX=0.25;exitY=0;exitDx=0;exitDy=0;entryX=0.5;entryY=1;entryDx=0;entryDy=0;fontSize=18;fontColor=#FFFFFF;" parent="1" source="l3SIcmZrGun3tXuFz_EY-1805" target="l3SIcmZrGun3tXuFz_EY-1809" edge="1">
          <mxGeometry relative="1" as="geometry" />
        </mxCell>
        <mxCell id="l3SIcmZrGun3tXuFz_EY-1812" style="edgeStyle=orthogonalEdgeStyle;curved=1;orthogonalLoop=1;jettySize=auto;html=1;exitX=0.5;exitY=0;exitDx=0;exitDy=0;entryX=0.5;entryY=1;entryDx=0;entryDy=0;fontSize=18;fontColor=#FFFFFF;" parent="1" source="l3SIcmZrGun3tXuFz_EY-1805" target="l3SIcmZrGun3tXuFz_EY-1810" edge="1">
          <mxGeometry relative="1" as="geometry" />
        </mxCell>
        <mxCell id="l3SIcmZrGun3tXuFz_EY-1805" value="Association Rule Learning" style="rounded=1;whiteSpace=wrap;html=1;shadow=0;labelBackgroundColor=none;strokeColor=#d6b656;strokeWidth=3;fillColor=#fff2cc;fontFamily=Helvetica;fontSize=14;align=center;spacing=5;arcSize=7;perimeterSpacing=2;" parent="1" vertex="1">
          <mxGeometry x="10" y="200" width="150" height="50" as="geometry" />
        </mxCell>
        <mxCell id="l3SIcmZrGun3tXuFz_EY-1806" value="FP Growth" style="shape=ext;double=1;rounded=1;whiteSpace=wrap;html=1;gradientColor=#b3b3b3;fillColor=#f5f5f5;strokeColor=#666666;" parent="1" vertex="1">
          <mxGeometry x="-120" y="160" width="100" height="40" as="geometry" />
        </mxCell>
        <mxCell id="l3SIcmZrGun3tXuFz_EY-1809" value="Euclat" style="shape=ext;double=1;rounded=1;whiteSpace=wrap;html=1;gradientColor=#b3b3b3;fillColor=#f5f5f5;strokeColor=#666666;" parent="1" vertex="1">
          <mxGeometry x="-60" y="90" width="100" height="40" as="geometry" />
        </mxCell>
        <mxCell id="l3SIcmZrGun3tXuFz_EY-1810" value="Apriori" style="shape=ext;double=1;rounded=1;whiteSpace=wrap;html=1;gradientColor=#b3b3b3;fillColor=#f5f5f5;strokeColor=#666666;" parent="1" vertex="1">
          <mxGeometry x="70" y="120" width="100" height="40" as="geometry" />
        </mxCell>
        <mxCell id="l3SIcmZrGun3tXuFz_EY-1813" value="Association Rule Learning" style="rounded=1;whiteSpace=wrap;html=1;shadow=0;labelBackgroundColor=none;strokeColor=#d6b656;strokeWidth=3;fillColor=#fff2cc;fontFamily=Helvetica;fontSize=14;align=center;spacing=5;arcSize=7;perimeterSpacing=2;" parent="1" vertex="1">
          <mxGeometry x="10" y="200" width="150" height="50" as="geometry" />
        </mxCell>
        <mxCell id="l3SIcmZrGun3tXuFz_EY-1814" value="FP Growth" style="shape=ext;double=1;rounded=1;whiteSpace=wrap;html=1;gradientColor=#b3b3b3;fillColor=#f5f5f5;strokeColor=#666666;" parent="1" vertex="1">
          <mxGeometry x="-120" y="160" width="100" height="40" as="geometry" />
        </mxCell>
        <mxCell id="l3SIcmZrGun3tXuFz_EY-1815" value="Association Rule Learning" style="rounded=1;whiteSpace=wrap;html=1;shadow=0;labelBackgroundColor=none;strokeColor=#d6b656;strokeWidth=3;fillColor=#fff2cc;fontFamily=Helvetica;fontSize=14;align=center;spacing=5;arcSize=7;perimeterSpacing=2;" parent="1" vertex="1">
          <mxGeometry x="10" y="200" width="150" height="50" as="geometry" />
        </mxCell>
        <mxCell id="l3SIcmZrGun3tXuFz_EY-1816" value="FP Growth" style="shape=ext;double=1;rounded=1;whiteSpace=wrap;html=1;gradientColor=#b3b3b3;fillColor=#f5f5f5;strokeColor=#666666;" parent="1" vertex="1">
          <mxGeometry x="-120" y="160" width="100" height="40" as="geometry" />
        </mxCell>
        <mxCell id="l3SIcmZrGun3tXuFz_EY-1817" value="Association Rule Learning" style="rounded=1;whiteSpace=wrap;html=1;shadow=0;labelBackgroundColor=none;strokeColor=#d6b656;strokeWidth=3;fillColor=#fff2cc;fontFamily=Helvetica;fontSize=14;align=center;spacing=5;arcSize=7;perimeterSpacing=2;" parent="1" vertex="1">
          <mxGeometry x="10" y="200" width="150" height="50" as="geometry" />
        </mxCell>
        <mxCell id="l3SIcmZrGun3tXuFz_EY-1818" value="FP Growth" style="shape=ext;double=1;rounded=1;whiteSpace=wrap;html=1;gradientColor=#b3b3b3;fillColor=#f5f5f5;strokeColor=#666666;" parent="1" vertex="1">
          <mxGeometry x="-120" y="160" width="100" height="40" as="geometry" />
        </mxCell>
        <mxCell id="l3SIcmZrGun3tXuFz_EY-1819" value="Euclat" style="shape=ext;double=1;rounded=1;whiteSpace=wrap;html=1;gradientColor=#b3b3b3;fillColor=#f5f5f5;strokeColor=#666666;" parent="1" vertex="1">
          <mxGeometry x="-60" y="90" width="100" height="40" as="geometry" />
        </mxCell>
        <mxCell id="l3SIcmZrGun3tXuFz_EY-1820" value="Apriori" style="shape=ext;double=1;rounded=1;whiteSpace=wrap;html=1;gradientColor=#b3b3b3;fillColor=#f5f5f5;strokeColor=#666666;" parent="1" vertex="1">
          <mxGeometry x="70" y="120" width="100" height="40" as="geometry" />
        </mxCell>
        <mxCell id="l3SIcmZrGun3tXuFz_EY-1821" value="Association Rule Learning" style="rounded=1;whiteSpace=wrap;html=1;shadow=0;labelBackgroundColor=none;strokeColor=#d6b656;strokeWidth=3;fillColor=#fff2cc;fontFamily=Helvetica;fontSize=14;align=center;spacing=5;arcSize=7;perimeterSpacing=2;" parent="1" vertex="1">
          <mxGeometry x="10" y="200" width="150" height="50" as="geometry" />
        </mxCell>
        <mxCell id="l3SIcmZrGun3tXuFz_EY-1822" value="FP Growth" style="shape=ext;double=1;rounded=1;whiteSpace=wrap;html=1;strokeColor=#666666;fillColor=#f5f5f5;gradientColor=#FFFFCC;" parent="1" vertex="1">
          <mxGeometry x="-120" y="160" width="100" height="40" as="geometry" />
        </mxCell>
        <mxCell id="l3SIcmZrGun3tXuFz_EY-1823" value="Euclat" style="shape=ext;double=1;rounded=1;whiteSpace=wrap;html=1;fillColor=#f5f5f5;strokeColor=#666666;gradientColor=#FFFFCC;" parent="1" vertex="1">
          <mxGeometry x="-60" y="90" width="100" height="40" as="geometry" />
        </mxCell>
        <mxCell id="l3SIcmZrGun3tXuFz_EY-1824" value="Apriori" style="shape=ext;double=1;rounded=1;whiteSpace=wrap;html=1;fillColor=#f5f5f5;strokeColor=#666666;gradientColor=#FFFFCC;" parent="1" vertex="1">
          <mxGeometry x="70" y="120" width="100" height="40" as="geometry" />
        </mxCell>
        <mxCell id="l3SIcmZrGun3tXuFz_EY-1835" style="edgeStyle=orthogonalEdgeStyle;curved=1;orthogonalLoop=1;jettySize=auto;html=1;exitX=0.25;exitY=0;exitDx=0;exitDy=0;fontSize=18;fontColor=#FFFFFF;entryX=1;entryY=0.5;entryDx=0;entryDy=0;" parent="1" source="l3SIcmZrGun3tXuFz_EY-1826" target="l3SIcmZrGun3tXuFz_EY-1827" edge="1">
          <mxGeometry relative="1" as="geometry" />
        </mxCell>
        <mxCell id="l3SIcmZrGun3tXuFz_EY-1836" style="edgeStyle=orthogonalEdgeStyle;curved=1;orthogonalLoop=1;jettySize=auto;html=1;exitX=0.5;exitY=0;exitDx=0;exitDy=0;entryX=1;entryY=1;entryDx=0;entryDy=0;fontSize=18;fontColor=#FFFFFF;" parent="1" source="l3SIcmZrGun3tXuFz_EY-1826" target="l3SIcmZrGun3tXuFz_EY-1828" edge="1">
          <mxGeometry relative="1" as="geometry">
            <Array as="points">
              <mxPoint x="355" y="130" />
            </Array>
          </mxGeometry>
        </mxCell>
        <mxCell id="l3SIcmZrGun3tXuFz_EY-1840" style="edgeStyle=orthogonalEdgeStyle;curved=1;orthogonalLoop=1;jettySize=auto;html=1;exitX=0.75;exitY=0;exitDx=0;exitDy=0;entryX=0;entryY=0.5;entryDx=0;entryDy=0;fontSize=18;fontColor=#FFFFFF;" parent="1" source="l3SIcmZrGun3tXuFz_EY-1826" target="l3SIcmZrGun3tXuFz_EY-1838" edge="1">
          <mxGeometry relative="1" as="geometry">
            <Array as="points">
              <mxPoint x="440" y="208" />
              <mxPoint x="440" y="160" />
            </Array>
          </mxGeometry>
        </mxCell>
        <mxCell id="l3SIcmZrGun3tXuFz_EY-1841" style="edgeStyle=orthogonalEdgeStyle;curved=1;orthogonalLoop=1;jettySize=auto;html=1;exitX=1;exitY=0.25;exitDx=0;exitDy=0;entryX=0;entryY=0.25;entryDx=0;entryDy=0;fontSize=18;fontColor=#FFFFFF;" parent="1" source="l3SIcmZrGun3tXuFz_EY-1826" target="l3SIcmZrGun3tXuFz_EY-1839" edge="1">
          <mxGeometry relative="1" as="geometry" />
        </mxCell>
        <mxCell id="l3SIcmZrGun3tXuFz_EY-1842" style="edgeStyle=orthogonalEdgeStyle;curved=1;orthogonalLoop=1;jettySize=auto;html=1;fontSize=18;fontColor=#FFFFFF;" parent="1" target="l3SIcmZrGun3tXuFz_EY-1829" edge="1">
          <mxGeometry relative="1" as="geometry">
            <mxPoint x="380" y="208" as="sourcePoint" />
          </mxGeometry>
        </mxCell>
        <mxCell id="l3SIcmZrGun3tXuFz_EY-1826" value="Clustering" style="rounded=1;whiteSpace=wrap;html=1;shadow=0;labelBackgroundColor=none;strokeColor=#d6b656;strokeWidth=3;fillColor=#fff2cc;fontFamily=Helvetica;fontSize=14;align=center;spacing=5;arcSize=7;perimeterSpacing=2;" parent="1" vertex="1">
          <mxGeometry x="280" y="210" width="150" height="50" as="geometry" />
        </mxCell>
        <mxCell id="l3SIcmZrGun3tXuFz_EY-1827" value="Fuzzy C-Means" style="shape=ext;double=1;rounded=1;whiteSpace=wrap;html=1;fillColor=#f5f5f5;strokeColor=#666666;gradientColor=#E6E6E6;" parent="1" vertex="1">
          <mxGeometry x="180" y="160" width="100" height="40" as="geometry" />
        </mxCell>
        <mxCell id="l3SIcmZrGun3tXuFz_EY-1828" value="Mean Shift" style="shape=ext;double=1;rounded=1;whiteSpace=wrap;html=1;fillColor=#f5f5f5;strokeColor=#666666;gradientColor=#E6E6E6;" parent="1" vertex="1">
          <mxGeometry x="210" y="90" width="100" height="40" as="geometry" />
        </mxCell>
        <mxCell id="l3SIcmZrGun3tXuFz_EY-1829" value="K-Means" style="shape=ext;double=1;rounded=1;whiteSpace=wrap;html=1;fillColor=#f5f5f5;strokeColor=#666666;gradientColor=#E6E6E6;" parent="1" vertex="1">
          <mxGeometry x="355" y="90" width="100" height="40" as="geometry" />
        </mxCell>
        <mxCell id="l3SIcmZrGun3tXuFz_EY-1848" style="edgeStyle=orthogonalEdgeStyle;curved=1;orthogonalLoop=1;jettySize=auto;html=1;exitX=1;exitY=0;exitDx=0;exitDy=0;fontSize=18;fontColor=#FFFFFF;" parent="1" source="l3SIcmZrGun3tXuFz_EY-1831" target="l3SIcmZrGun3tXuFz_EY-1833" edge="1">
          <mxGeometry relative="1" as="geometry" />
        </mxCell>
        <mxCell id="l3SIcmZrGun3tXuFz_EY-1849" style="edgeStyle=orthogonalEdgeStyle;curved=1;orthogonalLoop=1;jettySize=auto;html=1;exitX=1;exitY=0.5;exitDx=0;exitDy=0;entryX=0;entryY=0.5;entryDx=0;entryDy=0;fontSize=18;fontColor=#FFFFFF;" parent="1" source="l3SIcmZrGun3tXuFz_EY-1831" target="l3SIcmZrGun3tXuFz_EY-1847" edge="1">
          <mxGeometry relative="1" as="geometry" />
        </mxCell>
        <mxCell id="l3SIcmZrGun3tXuFz_EY-1850" style="edgeStyle=orthogonalEdgeStyle;curved=1;orthogonalLoop=1;jettySize=auto;html=1;exitX=1;exitY=1;exitDx=0;exitDy=0;entryX=0.25;entryY=0;entryDx=0;entryDy=0;fontSize=18;fontColor=#FFFFFF;" parent="1" source="l3SIcmZrGun3tXuFz_EY-1831" target="l3SIcmZrGun3tXuFz_EY-1846" edge="1">
          <mxGeometry relative="1" as="geometry" />
        </mxCell>
        <mxCell id="l3SIcmZrGun3tXuFz_EY-1851" style="edgeStyle=orthogonalEdgeStyle;curved=1;orthogonalLoop=1;jettySize=auto;html=1;exitX=0.75;exitY=1;exitDx=0;exitDy=0;entryX=0.25;entryY=0;entryDx=0;entryDy=0;fontSize=18;fontColor=#FFFFFF;" parent="1" source="l3SIcmZrGun3tXuFz_EY-1831" target="l3SIcmZrGun3tXuFz_EY-1834" edge="1">
          <mxGeometry relative="1" as="geometry" />
        </mxCell>
        <mxCell id="l3SIcmZrGun3tXuFz_EY-1852" style="edgeStyle=orthogonalEdgeStyle;curved=1;orthogonalLoop=1;jettySize=auto;html=1;exitX=0.25;exitY=1;exitDx=0;exitDy=0;fontSize=18;fontColor=#FFFFFF;" parent="1" source="l3SIcmZrGun3tXuFz_EY-1831" target="l3SIcmZrGun3tXuFz_EY-1845" edge="1">
          <mxGeometry relative="1" as="geometry" />
        </mxCell>
        <mxCell id="l3SIcmZrGun3tXuFz_EY-1831" value="Dimensionality Reduction" style="rounded=1;whiteSpace=wrap;html=1;shadow=0;labelBackgroundColor=none;strokeColor=#d6b656;strokeWidth=3;fillColor=#fff2cc;fontFamily=Helvetica;fontSize=14;align=center;spacing=5;arcSize=7;perimeterSpacing=2;" parent="1" vertex="1">
          <mxGeometry x="330" y="322.25" width="150" height="50" as="geometry" />
        </mxCell>
        <mxCell id="l3SIcmZrGun3tXuFz_EY-1833" value="t-SNE" style="shape=ext;double=1;rounded=1;whiteSpace=wrap;html=1;fillColor=#f5f5f5;strokeColor=#666666;gradientColor=#CCE5FF;" parent="1" vertex="1">
          <mxGeometry x="530" y="290" width="100" height="40" as="geometry" />
        </mxCell>
        <mxCell id="l3SIcmZrGun3tXuFz_EY-1834" value="SVD" style="shape=ext;double=1;rounded=1;whiteSpace=wrap;html=1;fillColor=#f5f5f5;strokeColor=#666666;gradientColor=#CCE5FF;" parent="1" vertex="1">
          <mxGeometry x="430" y="450" width="100" height="40" as="geometry" />
        </mxCell>
        <mxCell id="l3SIcmZrGun3tXuFz_EY-1838" value="DBSCAN" style="shape=ext;double=1;rounded=1;whiteSpace=wrap;html=1;fillColor=#f5f5f5;strokeColor=#666666;gradientColor=#E6E6E6;" parent="1" vertex="1">
          <mxGeometry x="485" y="130" width="100" height="40" as="geometry" />
        </mxCell>
        <mxCell id="l3SIcmZrGun3tXuFz_EY-1839" value="Agglomerative" style="shape=ext;double=1;rounded=1;whiteSpace=wrap;html=1;fillColor=#f5f5f5;strokeColor=#666666;gradientColor=#E6E6E6;" parent="1" vertex="1">
          <mxGeometry x="480" y="215" width="100" height="40" as="geometry" />
        </mxCell>
        <mxCell id="l3SIcmZrGun3tXuFz_EY-1845" value="LDA" style="shape=ext;double=1;rounded=1;whiteSpace=wrap;html=1;fillColor=#f5f5f5;strokeColor=#666666;gradientColor=#CCE5FF;" parent="1" vertex="1">
          <mxGeometry x="310" y="410" width="100" height="40" as="geometry" />
        </mxCell>
        <mxCell id="l3SIcmZrGun3tXuFz_EY-1846" value="LSA" style="shape=ext;double=1;rounded=1;whiteSpace=wrap;html=1;fillColor=#f5f5f5;strokeColor=#666666;gradientColor=#CCE5FF;" parent="1" vertex="1">
          <mxGeometry x="500" y="394" width="100" height="40" as="geometry" />
        </mxCell>
        <mxCell id="l3SIcmZrGun3tXuFz_EY-1847" value="PCA" style="shape=ext;double=1;rounded=1;whiteSpace=wrap;html=1;fillColor=#f5f5f5;strokeColor=#666666;gradientColor=#CCE5FF;" parent="1" vertex="1">
          <mxGeometry x="610" y="340" width="100" height="40" as="geometry" />
        </mxCell>
        <mxCell id="l3SIcmZrGun3tXuFz_EY-1899" style="edgeStyle=orthogonalEdgeStyle;curved=1;orthogonalLoop=1;jettySize=auto;html=1;exitX=0.75;exitY=0;exitDx=0;exitDy=0;entryX=0;entryY=0.5;entryDx=0;entryDy=0;fontSize=18;fontColor=#FFFFFF;" parent="1" source="l3SIcmZrGun3tXuFz_EY-1853" target="l3SIcmZrGun3tXuFz_EY-1896" edge="1">
          <mxGeometry relative="1" as="geometry">
            <Array as="points">
              <mxPoint x="211" y="550" />
            </Array>
          </mxGeometry>
        </mxCell>
        <mxCell id="l3SIcmZrGun3tXuFz_EY-1900" style="edgeStyle=orthogonalEdgeStyle;curved=1;orthogonalLoop=1;jettySize=auto;html=1;exitX=0.75;exitY=1;exitDx=0;exitDy=0;entryX=0;entryY=0.5;entryDx=0;entryDy=0;fontSize=18;fontColor=#FFFFFF;" parent="1" source="l3SIcmZrGun3tXuFz_EY-1853" target="l3SIcmZrGun3tXuFz_EY-1898" edge="1">
          <mxGeometry relative="1" as="geometry">
            <Array as="points">
              <mxPoint x="211" y="720" />
            </Array>
          </mxGeometry>
        </mxCell>
        <mxCell id="l3SIcmZrGun3tXuFz_EY-1901" style="edgeStyle=orthogonalEdgeStyle;curved=1;orthogonalLoop=1;jettySize=auto;html=1;exitX=1;exitY=0.5;exitDx=0;exitDy=0;fontSize=18;fontColor=#FFFFFF;" parent="1" source="l3SIcmZrGun3tXuFz_EY-1853" target="l3SIcmZrGun3tXuFz_EY-1897" edge="1">
          <mxGeometry relative="1" as="geometry" />
        </mxCell>
        <mxCell id="l3SIcmZrGun3tXuFz_EY-1853" value="Ensemble Learning&amp;nbsp; 集成学习" style="rounded=1;whiteSpace=wrap;html=1;shadow=0;labelBackgroundColor=none;strokeColor=#666666;strokeWidth=3;fontFamily=Helvetica;fontSize=18;fontColor=#333333;align=center;spacing=5;fontStyle=5;arcSize=7;perimeterSpacing=2;" parent="1" vertex="1">
          <mxGeometry x="60" y="605.5" width="200" height="54.5" as="geometry" />
        </mxCell>
        <mxCell id="l3SIcmZrGun3tXuFz_EY-1887" style="edgeStyle=orthogonalEdgeStyle;curved=1;orthogonalLoop=1;jettySize=auto;html=1;exitX=0;exitY=0.5;exitDx=0;exitDy=0;entryX=0.75;entryY=0;entryDx=0;entryDy=0;fontSize=18;fontColor=#FFFFFF;" parent="1" source="l3SIcmZrGun3tXuFz_EY-1854" target="l3SIcmZrGun3tXuFz_EY-1872" edge="1">
          <mxGeometry relative="1" as="geometry" />
        </mxCell>
        <mxCell id="l3SIcmZrGun3tXuFz_EY-1888" style="edgeStyle=orthogonalEdgeStyle;curved=1;orthogonalLoop=1;jettySize=auto;html=1;exitX=0.25;exitY=1;exitDx=0;exitDy=0;entryX=0.5;entryY=0;entryDx=0;entryDy=0;fontSize=18;fontColor=#FFFFFF;" parent="1" source="l3SIcmZrGun3tXuFz_EY-1854" target="l3SIcmZrGun3tXuFz_EY-1877" edge="1">
          <mxGeometry relative="1" as="geometry">
            <Array as="points">
              <mxPoint x="-241" y="800" />
              <mxPoint x="-395" y="800" />
            </Array>
          </mxGeometry>
        </mxCell>
        <mxCell id="l3SIcmZrGun3tXuFz_EY-1889" style="edgeStyle=orthogonalEdgeStyle;curved=1;orthogonalLoop=1;jettySize=auto;html=1;exitX=0.5;exitY=1;exitDx=0;exitDy=0;entryX=0.5;entryY=0;entryDx=0;entryDy=0;fontSize=18;fontColor=#FFFFFF;" parent="1" source="l3SIcmZrGun3tXuFz_EY-1854" target="l3SIcmZrGun3tXuFz_EY-1878" edge="1">
          <mxGeometry relative="1" as="geometry" />
        </mxCell>
        <mxCell id="l3SIcmZrGun3tXuFz_EY-1890" style="edgeStyle=orthogonalEdgeStyle;curved=1;orthogonalLoop=1;jettySize=auto;html=1;exitX=0.75;exitY=1;exitDx=0;exitDy=0;fontSize=18;fontColor=#FFFFFF;entryX=0.5;entryY=0;entryDx=0;entryDy=0;" parent="1" source="l3SIcmZrGun3tXuFz_EY-1854" target="l3SIcmZrGun3tXuFz_EY-1891" edge="1">
          <mxGeometry relative="1" as="geometry">
            <mxPoint x="-30" y="863" as="targetPoint" />
            <Array as="points">
              <mxPoint x="-139" y="790" />
              <mxPoint x="5" y="790" />
            </Array>
          </mxGeometry>
        </mxCell>
        <mxCell id="l3SIcmZrGun3tXuFz_EY-1893" style="edgeStyle=orthogonalEdgeStyle;curved=1;orthogonalLoop=1;jettySize=auto;html=1;exitX=1;exitY=0.5;exitDx=0;exitDy=0;entryX=0.25;entryY=0;entryDx=0;entryDy=0;fontSize=18;fontColor=#FFFFFF;" parent="1" source="l3SIcmZrGun3tXuFz_EY-1854" target="l3SIcmZrGun3tXuFz_EY-1892" edge="1">
          <mxGeometry relative="1" as="geometry" />
        </mxCell>
        <mxCell id="l3SIcmZrGun3tXuFz_EY-1854" value="Neural Networks and Deep Learning&lt;br&gt;神经网络和深度学习" style="rounded=1;whiteSpace=wrap;html=1;shadow=0;labelBackgroundColor=none;strokeColor=#666666;strokeWidth=3;fontFamily=Helvetica;fontSize=18;fontColor=#333333;align=center;spacing=5;fontStyle=5;arcSize=7;perimeterSpacing=2;" parent="1" vertex="1">
          <mxGeometry x="-290" y="660" width="200" height="70" as="geometry" />
        </mxCell>
        <mxCell id="l3SIcmZrGun3tXuFz_EY-1867" style="edgeStyle=orthogonalEdgeStyle;curved=1;orthogonalLoop=1;jettySize=auto;html=1;exitX=0.25;exitY=0;exitDx=0;exitDy=0;entryX=0.5;entryY=1;entryDx=0;entryDy=0;fontSize=18;fontColor=#FFFFFF;" parent="1" source="l3SIcmZrGun3tXuFz_EY-1855" target="l3SIcmZrGun3tXuFz_EY-1859" edge="1">
          <mxGeometry relative="1" as="geometry" />
        </mxCell>
        <mxCell id="l3SIcmZrGun3tXuFz_EY-1868" style="edgeStyle=orthogonalEdgeStyle;curved=1;orthogonalLoop=1;jettySize=auto;html=1;exitX=0;exitY=0.25;exitDx=0;exitDy=0;entryX=1;entryY=0.75;entryDx=0;entryDy=0;fontSize=18;fontColor=#FFFFFF;" parent="1" source="l3SIcmZrGun3tXuFz_EY-1855" target="l3SIcmZrGun3tXuFz_EY-1866" edge="1">
          <mxGeometry relative="1" as="geometry" />
        </mxCell>
        <mxCell id="l3SIcmZrGun3tXuFz_EY-1869" style="edgeStyle=orthogonalEdgeStyle;curved=1;orthogonalLoop=1;jettySize=auto;html=1;exitX=0;exitY=0.5;exitDx=0;exitDy=0;entryX=1;entryY=0.5;entryDx=0;entryDy=0;fontSize=18;fontColor=#FFFFFF;" parent="1" source="l3SIcmZrGun3tXuFz_EY-1855" target="l3SIcmZrGun3tXuFz_EY-1865" edge="1">
          <mxGeometry relative="1" as="geometry" />
        </mxCell>
        <mxCell id="l3SIcmZrGun3tXuFz_EY-1870" style="edgeStyle=orthogonalEdgeStyle;curved=1;orthogonalLoop=1;jettySize=auto;html=1;exitX=0;exitY=0.75;exitDx=0;exitDy=0;entryX=1;entryY=0.25;entryDx=0;entryDy=0;fontSize=18;fontColor=#FFFFFF;" parent="1" source="l3SIcmZrGun3tXuFz_EY-1855" target="l3SIcmZrGun3tXuFz_EY-1864" edge="1">
          <mxGeometry relative="1" as="geometry" />
        </mxCell>
        <mxCell id="l3SIcmZrGun3tXuFz_EY-1871" style="edgeStyle=orthogonalEdgeStyle;curved=1;orthogonalLoop=1;jettySize=auto;html=1;entryX=0.5;entryY=0;entryDx=0;entryDy=0;fontSize=18;fontColor=#FFFFFF;" parent="1" target="l3SIcmZrGun3tXuFz_EY-1863" edge="1">
          <mxGeometry relative="1" as="geometry">
            <mxPoint x="-620" y="626" as="sourcePoint" />
          </mxGeometry>
        </mxCell>
        <mxCell id="l3SIcmZrGun3tXuFz_EY-1855" value="Reinforcement Learning 强化学习" style="rounded=1;whiteSpace=wrap;html=1;shadow=0;labelBackgroundColor=none;strokeColor=#666666;strokeWidth=3;fontFamily=Helvetica;fontSize=18;fontColor=#333333;align=center;spacing=5;fontStyle=5;arcSize=7;perimeterSpacing=2;horizontal=1;" parent="1" vertex="1">
          <mxGeometry x="-680" y="577.25" width="230" height="54.5" as="geometry" />
        </mxCell>
        <mxCell id="l3SIcmZrGun3tXuFz_EY-1859" value="Q-Learning" style="shape=ext;double=1;rounded=1;whiteSpace=wrap;html=1;fillColor=#f5f5f5;strokeColor=#666666;fontColor=#333333;gradientColor=#CCFFCC;" parent="1" vertex="1">
          <mxGeometry x="-690" y="460" width="100" height="40" as="geometry" />
        </mxCell>
        <mxCell id="l3SIcmZrGun3tXuFz_EY-1863" value="A3C" style="shape=ext;double=1;rounded=1;whiteSpace=wrap;html=1;fillColor=#f5f5f5;strokeColor=#666666;fontColor=#333333;gradientColor=#CCFFCC;" parent="1" vertex="1">
          <mxGeometry x="-670" y="670" width="100" height="40" as="geometry" />
        </mxCell>
        <mxCell id="l3SIcmZrGun3tXuFz_EY-1864" value="Genetic Algorithm" style="shape=ext;double=1;rounded=1;whiteSpace=wrap;html=1;fillColor=#f5f5f5;strokeColor=#666666;fontColor=#333333;gradientColor=#CCFFCC;" parent="1" vertex="1">
          <mxGeometry x="-860" y="660" width="120" height="40" as="geometry" />
        </mxCell>
        <mxCell id="l3SIcmZrGun3tXuFz_EY-1865" value="SARSA" style="shape=ext;double=1;rounded=1;whiteSpace=wrap;html=1;fillColor=#f5f5f5;strokeColor=#666666;fontColor=#333333;gradientColor=#CCFFCC;" parent="1" vertex="1">
          <mxGeometry x="-874" y="584.5" width="100" height="40" as="geometry" />
        </mxCell>
        <mxCell id="l3SIcmZrGun3tXuFz_EY-1866" value="DQN" style="shape=ext;double=1;rounded=1;whiteSpace=wrap;html=1;fillColor=#f5f5f5;strokeColor=#666666;fontColor=#333333;gradientColor=#CCFFCC;" parent="1" vertex="1">
          <mxGeometry x="-850" y="490" width="100" height="40" as="geometry" />
        </mxCell>
        <mxCell id="l3SIcmZrGun3tXuFz_EY-1880" style="edgeStyle=orthogonalEdgeStyle;curved=1;orthogonalLoop=1;jettySize=auto;html=1;exitX=0;exitY=0.5;exitDx=0;exitDy=0;entryX=0.5;entryY=0;entryDx=0;entryDy=0;fontSize=18;fontColor=#FFFFFF;" parent="1" source="l3SIcmZrGun3tXuFz_EY-1872" target="l3SIcmZrGun3tXuFz_EY-1879" edge="1">
          <mxGeometry relative="1" as="geometry" />
        </mxCell>
        <mxCell id="l3SIcmZrGun3tXuFz_EY-1872" value="Convolutional Neural Networks（CNN）" style="rounded=1;whiteSpace=wrap;html=1;shadow=0;labelBackgroundColor=none;strokeColor=#d6b656;strokeWidth=3;fillColor=#fff2cc;fontFamily=Helvetica;fontSize=14;align=center;spacing=5;arcSize=7;perimeterSpacing=2;" parent="1" vertex="1">
          <mxGeometry x="-600" y="770" width="150" height="50" as="geometry" />
        </mxCell>
        <mxCell id="l3SIcmZrGun3tXuFz_EY-1884" style="edgeStyle=orthogonalEdgeStyle;curved=1;orthogonalLoop=1;jettySize=auto;html=1;exitX=0;exitY=0.75;exitDx=0;exitDy=0;entryX=0.75;entryY=0;entryDx=0;entryDy=0;fontSize=18;fontColor=#FFFFFF;" parent="1" source="l3SIcmZrGun3tXuFz_EY-1877" target="l3SIcmZrGun3tXuFz_EY-1881" edge="1">
          <mxGeometry relative="1" as="geometry" />
        </mxCell>
        <mxCell id="l3SIcmZrGun3tXuFz_EY-1885" style="edgeStyle=orthogonalEdgeStyle;curved=1;orthogonalLoop=1;jettySize=auto;html=1;exitX=0.25;exitY=1;exitDx=0;exitDy=0;entryX=0.5;entryY=0;entryDx=0;entryDy=0;fontSize=18;fontColor=#FFFFFF;" parent="1" source="l3SIcmZrGun3tXuFz_EY-1877" target="l3SIcmZrGun3tXuFz_EY-1882" edge="1">
          <mxGeometry relative="1" as="geometry" />
        </mxCell>
        <mxCell id="l3SIcmZrGun3tXuFz_EY-1886" style="edgeStyle=orthogonalEdgeStyle;curved=1;orthogonalLoop=1;jettySize=auto;html=1;exitX=0.5;exitY=1;exitDx=0;exitDy=0;entryX=0.25;entryY=0;entryDx=0;entryDy=0;fontSize=18;fontColor=#FFFFFF;" parent="1" source="l3SIcmZrGun3tXuFz_EY-1877" target="l3SIcmZrGun3tXuFz_EY-1883" edge="1">
          <mxGeometry relative="1" as="geometry" />
        </mxCell>
        <mxCell id="l3SIcmZrGun3tXuFz_EY-1877" value="Recurrent Neural Networks（RNN）" style="rounded=1;whiteSpace=wrap;html=1;shadow=0;labelBackgroundColor=none;strokeColor=#d6b656;strokeWidth=3;fillColor=#fff2cc;fontFamily=Helvetica;fontSize=14;align=center;spacing=5;arcSize=7;perimeterSpacing=2;" parent="1" vertex="1">
          <mxGeometry x="-470" y="860" width="150" height="50" as="geometry" />
        </mxCell>
        <mxCell id="l3SIcmZrGun3tXuFz_EY-1878" value="Generative Adversarial Networks（GAN）" style="rounded=1;whiteSpace=wrap;html=1;shadow=0;labelBackgroundColor=none;strokeColor=#d6b656;strokeWidth=3;fillColor=#fff2cc;fontFamily=Helvetica;fontSize=14;align=center;spacing=5;arcSize=7;perimeterSpacing=2;" parent="1" vertex="1">
          <mxGeometry x="-265" y="890" width="150" height="60" as="geometry" />
        </mxCell>
        <mxCell id="l3SIcmZrGun3tXuFz_EY-1879" value="DCNN" style="shape=ext;double=1;rounded=1;whiteSpace=wrap;html=1;fillColor=#f5f5f5;strokeColor=#666666;fontColor=#333333;" parent="1" vertex="1">
          <mxGeometry x="-760" y="870" width="100" height="40" as="geometry" />
        </mxCell>
        <mxCell id="l3SIcmZrGun3tXuFz_EY-1881" value="LSM" style="shape=ext;double=1;rounded=1;whiteSpace=wrap;html=1;gradientColor=#b3b3b3;fillColor=#f5f5f5;strokeColor=#666666;" parent="1" vertex="1">
          <mxGeometry x="-634" y="950" width="100" height="40" as="geometry" />
        </mxCell>
        <mxCell id="l3SIcmZrGun3tXuFz_EY-1882" value="LSTM" style="shape=ext;double=1;rounded=1;whiteSpace=wrap;html=1;gradientColor=#b3b3b3;fillColor=#f5f5f5;strokeColor=#666666;" parent="1" vertex="1">
          <mxGeometry x="-534" y="1020" width="100" height="40" as="geometry" />
        </mxCell>
        <mxCell id="l3SIcmZrGun3tXuFz_EY-1883" value="GRU" style="shape=ext;double=1;rounded=1;whiteSpace=wrap;html=1;gradientColor=#b3b3b3;fillColor=#f5f5f5;strokeColor=#666666;" parent="1" vertex="1">
          <mxGeometry x="-405" y="970" width="100" height="40" as="geometry" />
        </mxCell>
        <mxCell id="l3SIcmZrGun3tXuFz_EY-1895" style="edgeStyle=orthogonalEdgeStyle;curved=1;orthogonalLoop=1;jettySize=auto;html=1;exitX=0.5;exitY=1;exitDx=0;exitDy=0;entryX=0.5;entryY=0;entryDx=0;entryDy=0;fontSize=18;fontColor=#FFFFFF;" parent="1" source="l3SIcmZrGun3tXuFz_EY-1891" target="l3SIcmZrGun3tXuFz_EY-1894" edge="1">
          <mxGeometry relative="1" as="geometry" />
        </mxCell>
        <mxCell id="l3SIcmZrGun3tXuFz_EY-1891" value="Autoencoders" style="rounded=1;whiteSpace=wrap;html=1;shadow=0;labelBackgroundColor=none;strokeColor=#d6b656;strokeWidth=3;fillColor=#fff2cc;fontFamily=Helvetica;fontSize=14;align=center;spacing=5;arcSize=7;perimeterSpacing=2;" parent="1" vertex="1">
          <mxGeometry x="-70" y="860" width="150" height="50" as="geometry" />
        </mxCell>
        <mxCell id="l3SIcmZrGun3tXuFz_EY-1892" value="Perceptrons" style="rounded=1;whiteSpace=wrap;html=1;shadow=0;labelBackgroundColor=none;strokeColor=#d6b656;strokeWidth=3;fillColor=#fff2cc;fontFamily=Helvetica;fontSize=14;align=center;spacing=5;arcSize=7;perimeterSpacing=2;" parent="1" vertex="1">
          <mxGeometry x="60" y="770" width="150" height="50" as="geometry" />
        </mxCell>
        <mxCell id="l3SIcmZrGun3tXuFz_EY-1894" value="seq2seq" style="shape=ext;double=1;rounded=1;whiteSpace=wrap;html=1;fillColor=#f5f5f5;strokeColor=#666666;fontColor=#333333;" parent="1" vertex="1">
          <mxGeometry x="-45" y="970" width="100" height="40" as="geometry" />
        </mxCell>
        <mxCell id="l3SIcmZrGun3tXuFz_EY-1896" value="Stacking" style="rounded=1;whiteSpace=wrap;html=1;shadow=0;labelBackgroundColor=none;strokeColor=#d6b656;strokeWidth=3;fillColor=#fff2cc;fontFamily=Helvetica;fontSize=14;align=center;spacing=5;arcSize=7;perimeterSpacing=2;" parent="1" vertex="1">
          <mxGeometry x="345" y="530" width="120" height="40" as="geometry" />
        </mxCell>
        <mxCell id="l3SIcmZrGun3tXuFz_EY-1903" style="edgeStyle=orthogonalEdgeStyle;curved=1;orthogonalLoop=1;jettySize=auto;html=1;exitX=1;exitY=0.25;exitDx=0;exitDy=0;entryX=0;entryY=0.5;entryDx=0;entryDy=0;fontSize=18;fontColor=#FFFFFF;" parent="1" source="l3SIcmZrGun3tXuFz_EY-1897" target="l3SIcmZrGun3tXuFz_EY-1902" edge="1">
          <mxGeometry relative="1" as="geometry" />
        </mxCell>
        <mxCell id="l3SIcmZrGun3tXuFz_EY-1897" value="Bagging" style="rounded=1;whiteSpace=wrap;html=1;shadow=0;labelBackgroundColor=none;strokeColor=#d6b656;strokeWidth=3;fillColor=#fff2cc;fontFamily=Helvetica;fontSize=14;align=center;spacing=5;arcSize=7;perimeterSpacing=2;" parent="1" vertex="1">
          <mxGeometry x="400" y="612.75" width="120" height="40" as="geometry" />
        </mxCell>
        <mxCell id="l3SIcmZrGun3tXuFz_EY-1910" style="edgeStyle=orthogonalEdgeStyle;curved=1;orthogonalLoop=1;jettySize=auto;html=1;exitX=1;exitY=0.25;exitDx=0;exitDy=0;fontSize=18;fontColor=#FFFFFF;" parent="1" source="l3SIcmZrGun3tXuFz_EY-1898" target="l3SIcmZrGun3tXuFz_EY-1904" edge="1">
          <mxGeometry relative="1" as="geometry" />
        </mxCell>
        <mxCell id="l3SIcmZrGun3tXuFz_EY-1911" style="edgeStyle=orthogonalEdgeStyle;curved=1;orthogonalLoop=1;jettySize=auto;html=1;exitX=1;exitY=0.75;exitDx=0;exitDy=0;entryX=0;entryY=0.5;entryDx=0;entryDy=0;fontSize=18;fontColor=#FFFFFF;" parent="1" source="l3SIcmZrGun3tXuFz_EY-1898" target="l3SIcmZrGun3tXuFz_EY-1907" edge="1">
          <mxGeometry relative="1" as="geometry" />
        </mxCell>
        <mxCell id="l3SIcmZrGun3tXuFz_EY-1912" style="edgeStyle=orthogonalEdgeStyle;curved=1;orthogonalLoop=1;jettySize=auto;html=1;exitX=0.75;exitY=1;exitDx=0;exitDy=0;entryX=0.25;entryY=0;entryDx=0;entryDy=0;fontSize=18;fontColor=#FFFFFF;" parent="1" source="l3SIcmZrGun3tXuFz_EY-1898" target="l3SIcmZrGun3tXuFz_EY-1908" edge="1">
          <mxGeometry relative="1" as="geometry" />
        </mxCell>
        <mxCell id="l3SIcmZrGun3tXuFz_EY-1913" style="edgeStyle=orthogonalEdgeStyle;curved=1;orthogonalLoop=1;jettySize=auto;html=1;exitX=0.25;exitY=1;exitDx=0;exitDy=0;entryX=0.5;entryY=0;entryDx=0;entryDy=0;fontSize=18;fontColor=#FFFFFF;" parent="1" source="l3SIcmZrGun3tXuFz_EY-1898" target="l3SIcmZrGun3tXuFz_EY-1909" edge="1">
          <mxGeometry relative="1" as="geometry" />
        </mxCell>
        <mxCell id="l3SIcmZrGun3tXuFz_EY-1898" value="Boosting" style="rounded=1;whiteSpace=wrap;html=1;shadow=0;labelBackgroundColor=none;strokeColor=#d6b656;strokeWidth=3;fillColor=#fff2cc;fontFamily=Helvetica;fontSize=14;align=center;spacing=5;arcSize=7;perimeterSpacing=2;" parent="1" vertex="1">
          <mxGeometry x="345" y="700" width="120" height="40" as="geometry" />
        </mxCell>
        <mxCell id="l3SIcmZrGun3tXuFz_EY-1902" value="Random Forest" style="shape=ext;double=1;rounded=1;whiteSpace=wrap;html=1;fillColor=#f5f5f5;strokeColor=#666666;gradientColor=#9999FF;" parent="1" vertex="1">
          <mxGeometry x="610" y="565.5" width="100" height="40" as="geometry" />
        </mxCell>
        <mxCell id="l3SIcmZrGun3tXuFz_EY-1904" value="XGBoost" style="shape=ext;double=1;rounded=1;whiteSpace=wrap;html=1;fillColor=#f5f5f5;strokeColor=#666666;fontColor=#333333;" parent="1" vertex="1">
          <mxGeometry x="550" y="670" width="100" height="35" as="geometry" />
        </mxCell>
        <mxCell id="l3SIcmZrGun3tXuFz_EY-1907" value="LinghtGBM" style="shape=ext;double=1;rounded=1;whiteSpace=wrap;html=1;fillColor=#f5f5f5;strokeColor=#666666;fontColor=#333333;" parent="1" vertex="1">
          <mxGeometry x="580" y="742.5" width="100" height="35" as="geometry" />
        </mxCell>
        <mxCell id="l3SIcmZrGun3tXuFz_EY-1908" value="CatBoost" style="shape=ext;double=1;rounded=1;whiteSpace=wrap;html=1;fillColor=#f5f5f5;strokeColor=#666666;fontColor=#333333;" parent="1" vertex="1">
          <mxGeometry x="440" y="777.5" width="100" height="35" as="geometry" />
        </mxCell>
        <mxCell id="l3SIcmZrGun3tXuFz_EY-1909" value="AdaBoost" style="shape=ext;double=1;rounded=1;whiteSpace=wrap;html=1;fillColor=#f5f5f5;strokeColor=#666666;fontColor=#333333;" parent="1" vertex="1">
          <mxGeometry x="305" y="800" width="100" height="35" as="geometry" />
        </mxCell>
      </root>
    </mxGraphModel>
  </diagram>
</mxfile>
